# xmcd
#
# Track frame offsets: 
#        150
#        20129
#        36248
#        52960
#        69504
#        87365
#        104778
#        122673
#        137441
#        155930
#        173951
#
# Disc length: 2924 seconds
#
# Revision: 2
# Processed by: cddbd v1.5.2PL0 Copyright (c) Steve Scherf et al.
# Submitted via: ExactAudioCopy v1.1
#
DISCID=9d0b6a0b
DTITLE=Chris Stills - Chris Stills
DYEAR=2005
DGENRE=Rock
TTITLE0=landslide
TTITLE1=when the pain dies down
TTITLE2=kitty cathy
TTITLE3=for you
TTITLE4=story of a dying man
TTITLE5=flying high
TTITLE6=say my last goodbye
TTITLE7=demon
TTITLE8=fool for love
TTITLE9=golden hour
TTITLE10=sweet california
EXTD=
EXTT0=
EXTT1=
EXTT2=
EXTT3=
EXTT4=
EXTT5=
EXTT6=
EXTT7=
EXTT8=
EXTT9=
EXTT10=
PLAYORDER=
